<svg xmlns="http://www.w3.org/2000/svg" width="74.365" height="73.455" viewBox="0 0 74.365 73.455"><g transform="translate(-10 -16)"><path d="M228.857,62.023H225.7a1.685,1.685,0,0,1,0-3.369h3.157c1.753,0,5.82-.425,5.82-4.348V26.1c0-3.4-2.8-6.738-5.661-6.738H185.5c-2.944,0-5.835,3.339-5.835,6.738v5.615a1.685,1.685,0,1,1-3.369,0V26.1c.008-5.289,4.394-10.1,9.2-10.1h43.511c5.168,0,9.03,5.335,9.03,10.1V54.306C238.046,59,234.442,62.023,228.857,62.023Z" transform="translate(-153.681)" fill="rgba(0,0,0,0.6)"/><path d="M26.186,322.891c-.349.364.357.364,0,0ZM60.728,268.9H17.247A7.391,7.391,0,0,0,10,276.42v28.191c0,4.151,3.316,7.983,7.414,7.983h8.78v10.3l16.277-10.3H60.576c4.1,0,7.414-3.825,7.414-7.983V276.42A7.408,7.408,0,0,0,60.728,268.9ZM24.494,294.5a3.759,3.759,0,1,1,3.627-3.756A3.7,3.7,0,0,1,24.494,294.5Zm14.494,0a3.759,3.759,0,1,1,3.627-3.756A3.7,3.7,0,0,1,38.987,294.5Zm14.494,0a3.759,3.759,0,1,1,3.627-3.756A3.7,3.7,0,0,1,53.481,294.5Z" transform="translate(0 -233.709)" fill="rgba(0,0,0,0.6)"/><path d="M576.9,641.5" transform="translate(-523.882 -578.035)" fill="rgba(0,0,0,0.6)"/></g></svg>