<svg xmlns="http://www.w3.org/2000/svg" width="64.639" height="62.996" viewBox="0 0 64.639 62.996"><g transform="translate(-10 -22.5)"><path d="M148.839,36.078a5.039,5.039,0,1,0-5.039-5.039,5.039,5.039,0,0,0,5.039,5.039Z" transform="translate(-124.975 -3.269)" fill="rgba(0,0,0,0.6)"/><path d="M721.118,32.737A5.118,5.118,0,1,0,716,27.618,5.119,5.119,0,0,0,721.118,32.737Z" transform="translate(-659.434)" fill="rgba(0,0,0,0.6)"/><path d="M22,613.8a12,12,0,1,0,12,12A12,12,0,0,0,22,613.8Zm1.425,19.609v1.919H20.553v-1.919a5.838,5.838,0,0,1-5.013-5.164H18.6a2.422,2.422,0,0,0,1.979,2.262v-3.595c-.66-.125-1.029-.231-1.735-.422a4.048,4.048,0,0,1-3.06-3.964c0-1.919,1.873-4.076,4.769-4.459v-1.794h2.869v1.794c3.067.4,4.953,2.658,4.953,4.927H25.381a2.1,2.1,0,0,0-1.959-2v3.37c.831.185.831.165,1.6.369,2.856.778,3.5,2.645,3.5,4.208,0,2.4-1.919,4.056-5.092,4.465Z" transform="translate(0 -552.299)" fill="rgba(0,0,0,0.6)"/><path d="M146.836,726.11c-1.28-.231-1.636-.778-1.636-1.365,0-.693.871-1.359,1.636-1.445Zm2.9,6.662v-3.041c1.266.185,2.071.726,2.071,1.51,0,.693-.745,1.484-2.071,1.53Z" transform="translate(-126.283 -654.577)" fill="rgba(0,0,0,0.6)"/><path d="M24.287,212.185h1.985l-2.3,8.548H37.749l-2.3-8.548h1.985l2.355,8.548h4.432l-2.843-10.369c-.759-2.506-3.239-5.164-6.49-5.164h-8.06c-3.252,0-5.732,2.658-6.49,5.164L17.5,220.733h4.432l2.355-8.548Z" transform="translate(-7.005 -170.65)" fill="rgba(0,0,0,0.6)"/><path d="M67.159,204.4a4.557,4.557,0,0,1,4.558,4.551l-.007,13.976h2.929v5.732H68.7v23.732a3.011,3.011,0,0,1-6.022,0V228.666H60.768v23.725a3.011,3.011,0,0,1-6.022,0V228.666L10,228.679v-5.751H54.746V209.472L45.188,220.79a2.353,2.353,0,0,1-3.575-3.06l9.907-11.9c.64-.64,1.214-1.425,3.581-1.425H67.159Z" transform="translate(0 -169.902)" fill="rgba(0,0,0,0.6)"/></g></svg>