<svg xmlns="http://www.w3.org/2000/svg" width="70" height="54.992" viewBox="0 0 70 54.992"><g transform="translate(-10.003 -115.06)"><g transform="translate(10.003 115.06)"><path d="M34.709-395.76a94.1,94.1,0,0,0-10.034,3.566,15.84,15.84,0,0,0-4.157,2.15,34.427,34.427,0,0,1-4.73.968A45.447,45.447,0,0,0,10.538-388c-.681.359-.681.448-.179,3.494.448,2.759.591,3.136,1.326,3.6.771.466,1.129.466,5.053-.2,3.028-.519,3.386-.538,3.8-.286a8.285,8.285,0,0,0,4.408.914c2.9,0,4.533-.394,7.866-1.9a15.728,15.728,0,0,1,7.041-1.756,11.905,11.905,0,0,0,3.637-.466c2.007-.538,2.491-.9,2.186-1.6-.3-.663-1.434-1.093-3.44-1.344-4.551-.556-7.274-.931-7.526-1.021-.144-.036.305-.233,1.021-.412a23.971,23.971,0,0,0,2.419-.789,5.928,5.928,0,0,1,2.025-.466,40.207,40.207,0,0,1,4.641.9l3.763.914,2.061,1.344a27.827,27.827,0,0,1,2.724,1.989c.806.771,1.469.771,1.559,0,.144-1.183-3.673-5.626-6.4-7.454-1.864-1.272-4.964-2.258-9.066-2.885-1.917-.3-3.548-.519-3.619-.519C35.766-395.921,35.247-395.849,34.709-395.76Z" transform="translate(-10.003 395.94)" fill="rgba(0,0,0,0.6)"/><path d="M344.409-184.9c-2.24.538-3.709,1.9-5.339,4.927-.556,1.021-.968,1.613-1.111,1.559-.125-.054-.967-.538-1.864-1.075-2.455-1.469-3.351-1.774-5.2-1.684a6.672,6.672,0,0,0-5.931,3.655,8.985,8.985,0,0,0,.3,8.063,13.559,13.559,0,0,0,4.641,4.891,50.168,50.168,0,0,0,11.629,5.142l1.613.5L345-160.858c4.426-4.623,7.866-10.2,8.493-13.8a10.036,10.036,0,0,0-2.526-8.493A6.7,6.7,0,0,0,344.409-184.9Z" transform="translate(-301.713 200.188)" fill="rgba(0,0,0,0.6)"/><path d="M389.481,156.11a17.99,17.99,0,0,0-4.945,1.361,18.368,18.368,0,0,1-8.511,2.294,9.885,9.885,0,0,0-3.637.5c-1.559.52-1.917.735-1.917,1.183,0,.394.645,1,1.326,1.272a32.138,32.138,0,0,0,3.584.556c1.684.2,3.816.466,4.712.609.914.143,1.72.269,1.791.269a7.928,7.928,0,0,1-1.469.448,22.922,22.922,0,0,0-2.473.789c-1.308.574-2.455.466-6.54-.5l-3.619-.878-1.917-1.219a29.652,29.652,0,0,1-2.8-2.006c-1.057-.931-1.613-.968-1.7-.089-.126,1.182,3.422,5.375,6.092,7.2,2.186,1.487,5.357,2.526,9.6,3.154,1.7.251,3.386.448,3.745.448.789,0,3.279-.824,8.206-2.724,4-1.541,5.966-2.436,6.54-3.01.269-.269,1.344-.52,5.124-1.164a38.7,38.7,0,0,0,5.214-1.075c.5-.341.5-.448-.018-3.673-.412-2.419-.466-2.616-.986-3.082a3,3,0,0,0-1.021-.609,25.634,25.634,0,0,0-4.031.466l-3.566.591-1.039-.466a11.7,11.7,0,0,0-3.978-.824C391,155.948,390.215,156.02,389.481,156.11Z" transform="translate(-336.267 -116.51)" fill="rgba(0,0,0,0.6)"/></g></g></svg>