<svg xmlns="http://www.w3.org/2000/svg" width="106.404" height="81.498" viewBox="0 0 106.404 81.498"><g transform="translate(-16.587 417.2)"><g transform="translate(10.02 88.55)"><path d="M42.569-420.06a5.925,5.925,0,0,0-3.25,2.581c-.448.757-.493,1.167-.561,5.469l-.067,4.671H32.884v4.076c0,3.892-.022,4.076-.515,4.752a2.726,2.726,0,0,1-3.25.88c-1.591-.553-1.838-1.126-1.838-4.342v-2.7h-1.7c-2.466,0-3.61-.594-4.035-2.13-.157-.614-.336-.635-2.353-.246a11.291,11.291,0,0,0-8.833,7.947c-.269,1.106-.336,4.609-.336,23.248,0,15.158.067,22.285.247,23.044a11.149,11.149,0,0,0,5.784,7.108c2.645,1.27,2.108,1.25,20.378,1.25H53.063v-8.153c0-9.217.09-9.955,1.547-12.638a13.776,13.776,0,0,1,7.914-6.411l1.637-.553,11.725-.061,11.7-.061v-1.885a9.241,9.241,0,0,1,1.211-5.039c1.951-3.5,6.86-5.469,11.119-4.445.672.164,1.412.369,1.637.45.4.143.426-.164.336-7.62l-.067-7.763-.605-1.475a11.479,11.479,0,0,0-8.811-7c-1.927-.327-2.13-.307-2.13.266,0,.656-.807,1.536-1.7,1.885a8.359,8.359,0,0,1-2.331.287H84.675v2.5c0,1.987-.09,2.663-.4,3.216a2.714,2.714,0,0,1-2.488,1.516,2.792,2.792,0,0,1-2.488-1.352c-.4-.594-.448-1.045-.448-4.609v-3.934H73.287l-.09-4.568-.067-4.548-.672-1.106A6.824,6.824,0,0,0,71-419.241c-1.547-1.187-1.838-1.209-15.11-1.209C44.721-420.429,43.667-420.407,42.569-420.06Zm24.839,8.828v3.892H44.542v-7.784H67.408Z" transform="translate(-3.453 -85.3)" fill="rgba(0,0,0,0.6)"/><path d="M458.515-29.674a3.437,3.437,0,0,0-1.24,1.135c-.458.728-.477.881-.534,4.352l-.077,3.606H445.589c-7.016,0-11.5.068-12.239.187a7.063,7.063,0,0,0-5.433,3.979c-.381.931-.4,1.2-.344,5.554.057,4.3.077,4.639.477,5.4a7.873,7.873,0,0,0,3.546,3.1l1.182.491,11.953.05,11.934.05.077,3.674c.057,4.03.134,4.3,1.3,5.181a4.664,4.664,0,0,0,5.071-.051c.439-.271,4.881-3.658,9.875-7.552,6-4.656,9.285-7.3,9.646-7.806a4.685,4.685,0,0,0,.191-5.3c-.553-.9-1.544-1.727-9.933-8.246-5.129-4-9.76-7.467-10.294-7.738A4.913,4.913,0,0,0,458.515-29.674Z" transform="translate(-370.579 -432.062)" fill="rgba(0,0,0,0.6)"/></g></g></svg>