<svg xmlns="http://www.w3.org/2000/svg" width="99.223" height="84.712" viewBox="0 0 99.223 84.712"><g transform="translate(0.001 0)"><path d="M79.73,147.144h25.778a3.841,3.841,0,0,0,3.716-3.962v-9.209a3.841,3.841,0,0,0-3.716-3.962H85.46v-7.223a3.841,3.841,0,0,0-3.716-3.962h-41.3a3.84,3.84,0,0,0-3.716,3.833l-.01.486L22.038,108.72a3.547,3.547,0,0,0-5.255.238l-2,2.332a3.469,3.469,0,0,0,.182,4.686L29.207,130.01H13.716A3.838,3.838,0,0,0,10,133.962v9.209a3.841,3.841,0,0,0,3.716,3.962H38.532L52.22,161.709l-6.3,6.694a10.739,10.739,0,0,0-4.04-.8c-6.409,0-11.623,5.56-11.623,12.384s5.214,12.394,11.623,12.394,11.623-5.56,11.623-12.394a12.8,12.8,0,0,0-.709-4.211l6.328-6.748,6.328,6.748a13.12,13.12,0,0,0-.709,4.211c0,6.834,5.214,12.394,11.623,12.394s11.623-5.56,11.623-12.394-5.214-12.394-11.623-12.394a10.987,10.987,0,0,0-4.04.788l-6.3-6.672ZM41.893,185.439a5.458,5.458,0,1,1,5.113-5.452A5.288,5.288,0,0,1,41.893,185.439ZM81.481,180a5.123,5.123,0,1,1-5.113-5.441A5.3,5.3,0,0,1,81.481,180ZM43.037,129.373a3.833,3.833,0,0,1,3.716-3.833H74.758a3.841,3.841,0,0,1,3.716,3.962v.507H43.614l-.567-.6v-.032Zm9.3,17.771H65.919l-6.794,7.244Z" transform="translate(-10 -107.669)" fill="rgba(0,0,0,0.6)"/></g></svg>