<svg xmlns="http://www.w3.org/2000/svg" width="84" height="51.454" viewBox="0 0 84 51.454"><g transform="translate(-10 -199.857)"><g transform="translate(10 199.857)"><path d="M58.935-310.942a5.985,5.985,0,0,0-.919.7c-.459.416-.525.416-1.028.066-1.859-1.2-4.266.657-5.4,4.244-.459,1.4-.459,1.531-.131,2.034s.328.634.044,1.181a3.112,3.112,0,0,0,.94,3.784,3.79,3.79,0,0,1,1.137,1.838c1.16,3.194,2.713,5.4,4.419,6.279a7.817,7.817,0,0,0,5.1,0c1.6-.722,3.019-2.669,4.266-5.819a5.354,5.354,0,0,1,1.356-2.275,3.647,3.647,0,0,0,1.269-2.472,4.324,4.324,0,0,0-.459-1.422l-.459-.94.678-.569.678-.547-.547-1.05a10.235,10.235,0,0,0-4.441-4.331,6.666,6.666,0,0,0-3.85-.9A8.258,8.258,0,0,0,58.935-310.942Zm3.85,6.278c.657.241,1.9.591,2.778.809a4.557,4.557,0,0,1,1.575.547,2.744,2.744,0,0,0,.657.831,2.183,2.183,0,0,1,.657,1.072,1.639,1.639,0,0,1-1.116,1.422c-.372.044-.613.481-1.181,2.1-1.116,3.129-2.493,5.184-3.828,5.732a6.027,6.027,0,0,1-2.187.175c-1.422-.066-1.575-.131-2.385-.94a14.274,14.274,0,0,1-2.954-5.361c-.416-1.269-.657-1.663-.984-1.707a1.618,1.618,0,0,1-1.116-1.466c0-.984.7-1.378,2.888-1.531,1.969-.153,2.056-.175,2.472-.831a3.157,3.157,0,0,1,.984-.963A5.665,5.665,0,0,1,62.786-304.664Z" transform="translate(-47.67 311.143)" fill="rgba(0,0,0,0.6)"/><path d="M748.153-310.866a5.321,5.321,0,0,0-.919.7c-.568.525-.613.525-1.137.175a2.651,2.651,0,0,0-2.668.066c-1.815,1.116-3.828,5.535-2.865,6.344.306.241.306.35,0,1.072a3.7,3.7,0,0,0-.219,1.794,2.252,2.252,0,0,0,.963,1.75,4.915,4.915,0,0,1,1.356,2.078c1.2,3.216,2.975,5.709,4.55,6.366a7.818,7.818,0,0,0,2.406.306,4.854,4.854,0,0,0,4.331-1.794,18.449,18.449,0,0,0,2.734-5.1,5.256,5.256,0,0,1,1.2-1.75,3.8,3.8,0,0,0,1.05-1.619,3.5,3.5,0,0,0-.613-2.647c-.306-.241-.241-.372.437-.919l.765-.657-.591-1.115a11.343,11.343,0,0,0-4.593-4.375,6.913,6.913,0,0,0-3.675-.744A16.683,16.683,0,0,0,748.153-310.866Zm4.593,6.65a16.161,16.161,0,0,0,2.428.657,5.219,5.219,0,0,1,2.253,2.078,1.488,1.488,0,0,1-.919,1.641c-.416.087-.678.547-1.356,2.362-.984,2.582-2.187,4.506-3.281,5.25-.678.459-.963.5-2.45.437-1.618-.066-1.728-.087-2.559-.919a16.771,16.771,0,0,1-3.084-5.666c-.35-1.116-.568-1.466-.875-1.466-.5,0-1.094-.788-1.094-1.466,0-.984.657-1.312,2.909-1.487,2.034-.153,2.1-.175,2.362-.809C747.672-305.025,749.531-305.222,752.746-304.216Z" transform="translate(-677.715 310.957)" fill="rgba(0,0,0,0.6)"/><path d="M372.034-294.018a3.263,3.263,0,0,0-2.406.919,4.386,4.386,0,0,1-1.094.788,3.777,3.777,0,0,1-.875-.437c-1.443-.875-3-.437-4.637,1.291a10.834,10.834,0,0,0-2.45,4.485c-.634,1.859-.634,2.1-.087,2.822.437.547.437.547-.022,1.575a4,4,0,0,0,1.312,4.965c.7.393.9.7,1.422,2.209,1.6,4.485,3.828,7.7,6.081,8.707a6.733,6.733,0,0,0,3.456.5c2.056,0,2.406-.065,3.412-.591a8.861,8.861,0,0,0,2.253-1.838,25.426,25.426,0,0,0,3.784-7.088c.372-1.137.634-1.531,1.16-1.815a3.42,3.42,0,0,0,1.663-2.362,3.886,3.886,0,0,0-.591-3.369c-.394-.569-.482-.875-.306-.919a6.339,6.339,0,0,0,1.006-.744l.744-.657-.525-1.006A13.075,13.075,0,0,0,372.034-294.018Zm3.478,8.728c1.094.372,3.128.919,5.163,1.378.328.087.591.285.591.459s.262.482.613.7c.9.547,1.137.94,1.137,1.815a1.835,1.835,0,0,1-1.356,1.925c-.634.153-.744.328-1.378,2.231-1.422,4.221-3.522,7.5-5.295,8.247a8.592,8.592,0,0,1-2.362.285,4.482,4.482,0,0,1-4.179-1.794,19.434,19.434,0,0,1-3.478-6.693c-.657-1.947-.788-2.122-1.4-2.275a1.864,1.864,0,0,1-1.335-1.99c0-1.335.678-1.815,2.888-1.969,1.006-.087,2.209-.153,2.691-.153.788,0,.919-.087,1.312-.809C370.219-285.924,372.363-286.383,375.513-285.29Z" transform="translate(-330.078 295.553)" fill="rgba(0,0,0,0.6)"/><path d="M15.469-80.931c0,.788.087,1.006.437,1.116a2.973,2.973,0,0,1,.963.765,31.53,31.53,0,0,1,2.472,4.266c.021.11.175.634.328,1.16.262.919.262.941-.525,1.728-.875.875-1.575.875-1.443.021.044-.416.2-.5.765-.459.393.044.765-.044.831-.175a2.647,2.647,0,0,0-.416-2.013,18.331,18.331,0,0,1-1.466-2.319c-1.706-3.019-2.121-2.975-3.062.306a24.788,24.788,0,0,1-.854,2.559c-.393.678-.262,1.881.219,2.144.306.153.437.153.437,0,0-.306,1.029-.285,1.16.044.11.35-.219,1.05-.525,1.05A5.844,5.844,0,0,1,13-71.94c-.481-.591.875-6.65,1.707-7.546a1.766,1.766,0,0,0,.285-1.335l-.066-.963-1.356,1.356C11.181-78.043,10.022-74.871,10-70.8v2.034l1.137.875a23.559,23.559,0,0,0,6.519,3.216,27.9,27.9,0,0,0,9.625-.021,23.554,23.554,0,0,0,6.344-3.019l1.291-.94.022-2.187c0-4.047-1.094-7.022-3.5-9.537-1.006-1.071-1.335-1.291-1.947-1.291-.7,0-.722.022-.591.7a5.277,5.277,0,0,0,.788,1.641c1.16,1.6,1.509,2.625,1.378,3.981-.131,1.422-.7,2.21-1.619,2.21a1.506,1.506,0,0,1-1.641-.9c-.765-1.487.591-2.844,2.275-2.3.9.306.591-.634-.919-2.909a4.177,4.177,0,0,1-.788-1.815c0-.481-.087-.634-.372-.568-.262.044-1.16,1.838-2.888,5.709-1.378,3.085-2.559,5.622-2.647,5.622s-1.094-2.493-2.275-5.535a50.875,50.875,0,0,0-2.493-5.8,2.937,2.937,0,0,0-1.291-.262h-.941Z" transform="translate(-10 101.54)" fill="rgba(0,0,0,0.6)"/><path d="M704.529-81.02c0,.809.087.984.634,1.312.722.393,1.443,1.443,2.691,3.894,1.225,2.428,1.247,2.844.35,3.85-.853.9-1.575.919-1.443.044.044-.416.175-.5.765-.437.591.044.744-.044.831-.459a2.623,2.623,0,0,0-.525-1.9,26.579,26.579,0,0,1-1.422-2.253c-1.028-1.75-1.335-2.122-1.772-2.122-.547,0-.547-.022-1.422,3.063a10.066,10.066,0,0,1-.678,1.859,2.359,2.359,0,0,0-.2,1.137c0,.7.11.984.437,1.16.306.153.438.153.438,0,0-.11.241-.219.547-.219.438,0,.547.11.547.547,0,.7-.547.94-1.072.459a1.325,1.325,0,0,0-.634-.35c-.482,0-.744-.919-.612-2.165a19.509,19.509,0,0,1,1.684-5.775,2.18,2.18,0,0,0,.372-1.531l-.066-.919-1.312,1.312a13.009,13.009,0,0,0-3.281,5.819,20.835,20.835,0,0,0-.328,3.7v2.3l1.16.853a25.167,25.167,0,0,0,6.5,3.128,28.438,28.438,0,0,0,9.625,0,23.559,23.559,0,0,0,6.519-3.216L724-68.814v-2.034a13.367,13.367,0,0,0-3.435-9.516c-1.05-1.116-1.4-1.356-1.99-1.356s-.7.087-.7.525a5.585,5.585,0,0,0,.919,1.881c1.181,1.794,1.422,2.559,1.269,4.025-.153,1.443-.657,2.1-1.619,2.1a1.686,1.686,0,0,1-1.772-1.312,1.659,1.659,0,0,1,2.319-1.881c.613.306.634.285.634-.175a6.317,6.317,0,0,0-.984-2.013,11.652,11.652,0,0,1-1.225-2.341c-.131-.481-.328-.809-.482-.744-.219.066-1.641,3.063-4.725,10.019l-.7,1.618-2.253-5.775c-1.6-4.113-2.385-5.841-2.668-5.95a4.432,4.432,0,0,0-1.225-.175l-.831-.022v.92Z" transform="translate(-639.998 101.586)" fill="rgba(0,0,0,0.6)"/><path d="M313.268,13.368l.022,1.4.919.437c.809.393,1.094.765,2.582,3.325a32.662,32.662,0,0,1,1.684,3.171,6.467,6.467,0,0,0,.372,1.247c.416,1.16.285,1.641-.744,2.691-.853.875-1.335,1.029-1.772.5a.847.847,0,0,1,1.116-1.247c.372.241.5.241.788,0,.568-.481.241-1.925-.853-3.609-.525-.809-1.4-2.253-1.947-3.215-1.422-2.516-2.253-2.888-2.888-1.269-.175.437-.634,1.947-1.029,3.325a17.8,17.8,0,0,1-.875,2.625,2.323,2.323,0,0,0-.306.9c-.262,1.466.591,2.581,1.4,1.838.5-.437.788-.416,1.181.153.657.919-.678,1.815-1.4.94a.923.923,0,0,0-.547-.328c-.175,0-.5-.262-.765-.613-.437-.525-.459-.744-.328-2.121a34.681,34.681,0,0,1,2.034-7.547,2.126,2.126,0,0,1,.634-.722c.328-.2.306-2.778-.022-2.778-.393,0-3.325,3.216-4.047,4.441-1.815,3.063-2.428,5.556-2.428,9.888v3.063l1.575,1.16a30.633,30.633,0,0,0,8.6,4.135c2.034.547,2.493.591,6.453.591s4.419-.044,6.453-.591a30.621,30.621,0,0,0,8.6-4.135l1.575-1.16V26.8c0-5.622-1.247-9.013-4.593-12.622-1.116-1.181-1.619-1.553-2.275-1.707-1.094-.241-1.225-.153-1.225.744a5.972,5.972,0,0,0,1.291,2.669c1.618,2.493,1.793,3.019,1.618,5.031-.153,1.881-.568,2.6-1.663,2.888a2.077,2.077,0,0,1-2.231-.547,2.263,2.263,0,0,1,.7-3.719,1.67,1.67,0,0,1,1.663.022,2.57,2.57,0,0,0,.963.262c.262-.262-.416-1.815-1.531-3.478a7.4,7.4,0,0,1-1.425-2.909c-.087-.809-.175-.963-.569-.963s-.94,1.094-3.85,7.656c-1.859,4.221-3.435,7.656-3.5,7.656-.087,0-1.466-3.412-3.084-7.569s-2.975-7.635-3.04-7.743a5.812,5.812,0,0,0-1.684-.328l-1.6-.153v1.378Z" transform="translate(-280.674 15.707)" fill="rgba(0,0,0,0.6)"/></g></g></svg>