<svg xmlns="http://www.w3.org/2000/svg" width="92.375" height="102.963" viewBox="0 0 92.375 102.963"><g transform="translate(0 0)"><g transform="translate(0)"><path d="M60.971-500.5l-.581.5v100.971l.581.5.581.5H93.9l.581-.5.581-.5.062-15.279.042-15.278h7.224c3.965,0,9.092.062,11.417.145l4.193.124v30.08l.6.6.6.6h32.4l.581-.5.581-.5V-500l-.581-.5-.581-.5H119.2l-.6.6-.6.6v35.539H95.16l-.042-17.874L95.056-500l-.581-.5-.581-.5H61.552Zm30.868,20.614c.021,13.68.062,17.893.27,18.144.623.81.789.81,14.676.81H120.3l.5-.519.519-.5v-35.726h28.232v96.32H121.316v-30.328l-.519-.5-.5-.519H92.69l-.415.54c-.436.54-.436.685-.436,15.672v15.133H63.607v-96.322H91.838v17.791Z" transform="translate(-60.39 501)" fill="rgba(0,0,0,0.6)"/></g></g></svg>