<svg xmlns="http://www.w3.org/2000/svg" width="85.841" height="84.396" viewBox="0 0 85.841 84.396"><g transform="translate(-10 -18.2)"><path d="M748.9,443.8Z" transform="translate(-674.178 -388.321)" fill="rgba(0,0,0,0.6)"/><path d="M15.536,78.288H10V71.08h5.536Zm2.715,15.67H13.1V88.221H10.342v14.094H13.1v-5.9H18.26v5.9h2.759V88.221H18.26v5.737ZM43.872,49.725l-.1-.166c-4.064-7.042-20.628-7.051-24.614,0l-.1.175v3.758H43.872V49.725ZM10.044,67.865H94.9V56.785h-.009V46.624H89.35V56.785H15.536V38.819H10V56.785h.044ZM94.895,78.288V71.08H89.35v7.209ZM59.411,102.324H62.17v-14.1H59.411Zm21.224-14.2,5.072,14.2h-2.9l-1.13-3.118H77.35l-1.069,3.118H73.522l5.072-14.2Zm.447,8.856L80.03,93.836l-.42-2.216h-.1l-.42,2.234-1.034,3.127Zm-6.2-8.759H63.887v2.453h4.126v11.641h2.759V90.674H74.88ZM89.674,99.863V88.221H86.915v14.094h8.926V99.854l-6.167.009ZM34.6,92.268a11.408,11.408,0,0,1,.368,3,8.409,8.409,0,0,1-1.559,5.431,5.393,5.393,0,0,1-4.423,1.9,6.211,6.211,0,0,1-2.654-.526,4.85,4.85,0,0,1-1.857-1.489,6.578,6.578,0,0,1-1.095-2.312,11.822,11.822,0,0,1-.359-3,8.366,8.366,0,0,1,1.55-5.422,5.387,5.387,0,0,1,4.432-1.9,6.185,6.185,0,0,1,2.637.526,4.957,4.957,0,0,1,1.874,1.489A6.893,6.893,0,0,1,34.6,92.268Zm-2.54,3a9.376,9.376,0,0,0-.175-1.91,5.567,5.567,0,0,0-.534-1.55,2.706,2.706,0,0,0-.946-1.034,2.643,2.643,0,0,0-1.428-.368A2.616,2.616,0,0,0,26.7,91.585a6.61,6.61,0,0,0-.806,3.7,9.7,9.7,0,0,0,.184,1.962,5.228,5.228,0,0,0,.552,1.542,2.855,2.855,0,0,0,.955,1.007,2.6,2.6,0,0,0,1.384.359A2.634,2.634,0,0,0,31.25,99,6.616,6.616,0,0,0,32.065,95.273Zm12.053-.193a8.639,8.639,0,0,0-1.55-.876c-.552-.245-1.077-.473-1.55-.7a5.179,5.179,0,0,1-1.182-.745,1.261,1.261,0,0,1-.473-1.007,1.216,1.216,0,0,1,.517-1.025,2.445,2.445,0,0,1,1.48-.385,7.763,7.763,0,0,1,1.91.228,4.92,4.92,0,0,1,1.331.508l.867-2.312a5.818,5.818,0,0,0-1.8-.613,12.206,12.206,0,0,0-2.312-.21,7.01,7.01,0,0,0-1.936.245,4.147,4.147,0,0,0-1.5.745,3.305,3.305,0,0,0-.972,1.261,4.265,4.265,0,0,0-.342,1.778,3.645,3.645,0,0,0,.473,1.953A4.463,4.463,0,0,0,38.266,95.2a8.1,8.1,0,0,0,1.55.867c.552.236,1.077.464,1.55.683a5.13,5.13,0,0,1,1.191.736,1.318,1.318,0,0,1,.473,1.042,1.4,1.4,0,0,1-.657,1.261,3.576,3.576,0,0,1-1.883.412,5.483,5.483,0,0,1-1.016-.088,9.27,9.27,0,0,1-.937-.2,6.545,6.545,0,0,1-.8-.263,5.292,5.292,0,0,1-.569-.263l-.885,2.356a8.146,8.146,0,0,0,1.691.561,11.478,11.478,0,0,0,2.654.28,7.847,7.847,0,0,0,2.1-.263,4.44,4.44,0,0,0,1.629-.806,3.758,3.758,0,0,0,1.051-1.358,4.7,4.7,0,0,0,.368-1.945,3.473,3.473,0,0,0-.473-1.883A4.633,4.633,0,0,0,44.117,95.08Zm12.771-4.774a4.694,4.694,0,0,1,.534,2.391,4.827,4.827,0,0,1-.464,2.242,4.216,4.216,0,0,1-1.226,1.5,4.977,4.977,0,0,1-1.743.85,7.721,7.721,0,0,1-2.023.263h-.324c-.149,0-.307,0-.464-.009l-.473-.026a2.858,2.858,0,0,1-.333-.044v4.853H47.612V88.37c.569-.105,1.182-.193,1.866-.254s1.358-.088,2.023-.088a13.092,13.092,0,0,1,2.1.175,5.243,5.243,0,0,1,1.9.683A3.846,3.846,0,0,1,56.888,90.306Zm-2.374,2.347a2.253,2.253,0,0,0-.236-1.095,1.921,1.921,0,0,0-.631-.692,2.353,2.353,0,0,0-.9-.359,4.96,4.96,0,0,0-1.025-.1q-.407,0-.762.026c-.245.026-.438.044-.587.07V95.08a1.859,1.859,0,0,0,.245.044,2.081,2.081,0,0,0,.342.026c.123.009.236.009.35.009h.254a6.316,6.316,0,0,0,1.077-.1,2.628,2.628,0,0,0,.955-.377,1.944,1.944,0,0,0,.674-.753A2.844,2.844,0,0,0,54.515,92.654ZM62,41.543h8.348V34.054H77.84V25.707H70.351V18.2H62v7.5h-7.5v8.348H62Z" fill="rgba(0,0,0,0.6)"/></g></svg>