<svg xmlns="http://www.w3.org/2000/svg" width="31.757" height="77.986" viewBox="0 0 31.757 77.986"><g transform="translate(-300.47 -10.01)"><g transform="translate(300.47 10.01)"><path d="M385.945-500.316a1.74,1.74,0,0,0-.675,1.409,2.244,2.244,0,0,0,3.89,1.667,1.808,1.808,0,0,0,.575-1.588,1.594,1.594,0,0,0-.655-1.588,1.922,1.922,0,0,0-1.549-.575A1.744,1.744,0,0,0,385.945-500.316Z" transform="translate(-378.522 500.99)" fill="rgba(0,0,0,0.6)"/><path d="M531.67-471.624a2.4,2.4,0,0,0-1.647,1.31,2.757,2.757,0,0,0,1.409,3.771,2.064,2.064,0,0,0,1.727.178,2.834,2.834,0,0,0,2.064-3.295A2.729,2.729,0,0,0,531.67-471.624Z" transform="translate(-511.485 474.105)" fill="rgba(0,0,0,0.6)"/><path d="M457.15-442.425a1.534,1.534,0,0,0-.794,1.945,1.543,1.543,0,0,0,2.977-.555A1.5,1.5,0,0,0,457.15-442.425Z" transform="translate(-443.851 447.248)" fill="rgba(0,0,0,0.6)"/><path d="M302.951-373.343a5.743,5.743,0,0,0-1.33.834,5.7,5.7,0,0,0-1.152,2.957,5.69,5.69,0,0,0,1.152,2.957,5.731,5.731,0,0,0,3.176,1.31h.834v25.068c0,21.555.04,25.226.3,26.2a11.006,11.006,0,0,0,7.78,7.78,12.456,12.456,0,0,0,5.279,0,11.162,11.162,0,0,0,7.78-7.741c.258-1.032.3-4.366.3-26.239v-25.068h.853a5.691,5.691,0,0,0,3-1.151,5.85,5.85,0,0,0,1.31-3.037,4.211,4.211,0,0,0-2.461-3.871l-1.012-.477H303.944Zm25.822,2.938a1.371,1.371,0,0,1,.337.853c-.02.933-.476,1.171-2.54,1.29a5.379,5.379,0,0,0-2.124.357c-.2.2-.278,5.379-.357,26.6l-.1,26.338-.477,1.19a8.869,8.869,0,0,1-4.287,4.267,8.677,8.677,0,0,1-5.756,0,8.869,8.869,0,0,1-4.287-4.267l-.477-1.19L308.647-332l-.06-17.01h3.2c3.116,0,3.2-.02,3.672-.5a1.349,1.349,0,0,0,.04-2.044c-.417-.4-.695-.437-3.612-.477l-3.176-.06-.06-3.037-.06-3.017h3c3.314,0,4.069-.2,4.287-1.132a1.576,1.576,0,0,0-.715-1.787,12.071,12.071,0,0,0-3.513-.258h-3.037v-3.969h9.35l.477-.5a1.461,1.461,0,0,0,.1-2.084c-.377-.377-.675-.4-6.986-.417-3.632-.02-6.828-.08-7.106-.159a1.222,1.222,0,0,1-.814-1.489c.337-.913.417-.913,12.961-.854C327.324-370.742,328.475-370.7,328.773-370.4Z" transform="translate(-300.47 383.94)" fill="rgba(0,0,0,0.6)"/><path d="M525.3-229.009a1.518,1.518,0,0,0,1.012,2.6,1.516,1.516,0,0,0,1.449-2.242A1.512,1.512,0,0,0,525.3-229.009Z" transform="translate(-507.003 251.099)" fill="rgba(0,0,0,0.6)"/><path d="M525.389-128.774a1.785,1.785,0,0,0,.06,2.58,1.859,1.859,0,0,0,3.2-1.409,1.646,1.646,0,0,0-1.866-1.787A1.412,1.412,0,0,0,525.389-128.774Z" transform="translate(-507.01 158.961)" fill="rgba(0,0,0,0.6)"/><path d="M425.18-23.123v1.489h1.965c2.3,0,3.1.238,3.513,1.012a1.509,1.509,0,0,1-.457,1.965c-.437.337-.814.4-2.759.4H425.18v5.954h2.342c2.184,0,2.382.04,2.759.437a3.268,3.268,0,0,1,.516.794,1.881,1.881,0,0,1-.655,1.747,11.036,11.036,0,0,1-2.659.2h-2.3v5.954h2.262c2.1,0,2.322.04,2.819.477a1.617,1.617,0,0,1,.119,2.362c-.4.4-.675.437-2.819.5l-2.382.08V3.058c0,3.572.238,4.347,1.767,5.894a5.849,5.849,0,0,0,8.4-.02c1.845-1.845,1.747-.873,1.747-18.4V-24.61H425.18Z" transform="translate(-415.256 62.52)" fill="rgba(0,0,0,0.6)"/></g></g></svg>