<svg xmlns="http://www.w3.org/2000/svg" width="92.335" height="88.892" viewBox="0 0 92.335 88.892"><g transform="translate(-10.054 -28.3)"><path d="M64.737,69.08H55.314V59.658a1.725,1.725,0,0,0-1.724-1.724H39.635a1.725,1.725,0,0,0-1.724,1.724V69.08H28.479A1.725,1.725,0,0,0,26.755,70.8V84.75a1.725,1.725,0,0,0,1.724,1.724h9.432v9.432a1.725,1.725,0,0,0,1.724,1.724H53.581A1.725,1.725,0,0,0,55.3,95.906V86.484h9.432a1.725,1.725,0,0,0,1.724-1.724V70.814A1.733,1.733,0,0,0,64.737,69.08ZM63.012,83.035H53.581a1.725,1.725,0,0,0-1.724,1.724v9.432H41.36V84.759a1.725,1.725,0,0,0-1.724-1.724H30.2v-10.5h9.432a1.725,1.725,0,0,0,1.724-1.724V61.382h10.5V70.8a1.725,1.725,0,0,0,1.724,1.724h9.432ZM78.936,53.025H68.911v-.009a5.851,5.851,0,0,1,1.018-3.449,15.99,15.99,0,0,1,3.826-3.42,7.277,7.277,0,0,0,1.771-1.6,2.721,2.721,0,0,0,.509-1.63,2.192,2.192,0,0,0-.565-1.574,1.925,1.925,0,0,0-1.489-.6,1.765,1.765,0,0,0-1.536.754,3.169,3.169,0,0,0-.518,2.026H69.1a5.037,5.037,0,0,1,1.244-3.8A4.793,4.793,0,0,1,74,38.325a4.942,4.942,0,0,1,3.543,1.291,4.355,4.355,0,0,1,1.366,3.326,4.607,4.607,0,0,1-.782,2.77,10.642,10.642,0,0,1-2.93,2.469,9.735,9.735,0,0,0-2.714,2.28l-.009.028h6.454l.009,2.535Zm7.3,0h2.836V49.783h1.658v-2.3H89.075V38.325H85.834l-5.427,8.961v2.5h5.823v3.241Zm-3.694-5.54.122-.207,3.571-5.917v6.115l-3.694.009ZM75.177,55.4h.791v7.566H74.385v-3.43H71.427v3.43H69.844V55.4h1.583v2.836h2.959V55.4Zm8.348,6.586-.038-1.244a1.417,1.417,0,0,0-.669-1.291,1.608,1.608,0,0,0-.254-.132,1.954,1.954,0,0,0,.443-.226,1.787,1.787,0,0,0,.735-1.592,1.891,1.891,0,0,0-.66-1.517,2.547,2.547,0,0,0-1.743-.584H77.523v7.566h1.583v-3H80.68a1.642,1.642,0,0,1,.961.217.856.856,0,0,1,.3.735l.009.707a7.571,7.571,0,0,0,.047.829,2.944,2.944,0,0,0,.1.509h1.743v-.207a.5.5,0,0,1-.254-.245A1.94,1.94,0,0,1,83.525,61.985Zm-1.677-3.533a1.422,1.422,0,0,1-.923.245H79.087V56.69H81a1.368,1.368,0,0,1,.876.245.927.927,0,0,1,.292.754A.949.949,0,0,1,81.848,58.452Zm8.565.867a1.933,1.933,0,0,1,.556,1.536,1.978,1.978,0,0,1-.839,1.687,3.732,3.732,0,0,1-2.271.622,3.421,3.421,0,0,1-2.243-.66,2.513,2.513,0,0,1-.867-1.9h1.526a1.151,1.151,0,0,0,.433.933,1.814,1.814,0,0,0,1.15.33,2.262,2.262,0,0,0,1.178-.245.733.733,0,0,0,.424-.669.7.7,0,0,0-.311-.631,4.51,4.51,0,0,0-1.281-.415,6.689,6.689,0,0,1-2.412-.867,1.725,1.725,0,0,1-.6-1.442,2.137,2.137,0,0,1,.791-1.753,3.384,3.384,0,0,1,2.158-.65,3.1,3.1,0,0,1,2.073.669,2.542,2.542,0,0,1,.9,1.8H89.235a1.117,1.117,0,0,0-.481-.857,1.859,1.859,0,0,0-1.121-.311,1.475,1.475,0,0,0-.942.264.887.887,0,0,0-.339.735.564.564,0,0,0,.358.518,6.455,6.455,0,0,0,1.489.443A5.755,5.755,0,0,1,90.413,59.319Zm11.976-8.574a22.441,22.441,0,0,0-44.37-4.768A77.953,77.953,0,0,0,46.608,45.1a73.987,73.987,0,0,0-35.664,8.914,1.715,1.715,0,0,0-.886,1.64c1.96,26.43,15.3,49.345,35.673,61.3a1.748,1.748,0,0,0,1.753,0c15.33-9,27.052-24.894,32.479-43.758A22.479,22.479,0,0,0,102.389,50.744ZM46.608,113.451C27.98,102.106,15.721,80.962,13.592,56.511a70.606,70.606,0,0,1,33.016-7.953,74.393,74.393,0,0,1,10.958.848c-.028.443-.066.9-.066,1.347A22.454,22.454,0,0,0,76.449,72.9C71.285,90.271,60.581,104.914,46.608,113.451ZM80.18,69.731a1.64,1.64,0,0,0-.848-.556,1.689,1.689,0,0,0-1.6.433,19.036,19.036,0,1,1,2.45.122Z" fill="rgba(0,0,0,0.6)"/></g></svg>