<svg xmlns="http://www.w3.org/2000/svg" width="52.759" height="80.574" viewBox="0 0 52.759 80.574"><g transform="translate(-179.171 -10)"><g transform="translate(179.171 10)"><g transform="translate(0 0)"><path d="M258.474,18.521a6.4,6.4,0,0,1,3.839.921l1.743-6.5a1.435,1.435,0,0,0-1.439-1.439h-8.279a1.435,1.435,0,0,0-1.439,1.439l1.743,6.5A6.37,6.37,0,0,1,258.474,18.521ZM256.83,14.69a.158.158,0,0,1,.164-.156h.9a.053.053,0,0,0,.049-.049v-.9a.158.158,0,0,1,.164-.156h.748a.163.163,0,0,1,.164.156v.9a.053.053,0,0,0,.049.049h.9a.163.163,0,0,1,.164.156v.756a.165.165,0,0,1-.164.164h-.9a.047.047,0,0,0-.049.049v.9a.158.158,0,0,1-.164.156H258.1a.163.163,0,0,1-.164-.156v-.9a.047.047,0,0,0-.049-.049h-.9a.165.165,0,0,1-.164-.164Z" transform="translate(-246.839 -11.377)" fill="rgba(0,0,0,0.6)"/><path d="M199.15,317.309a52.7,52.7,0,0,1-1.669-5.8c0-3.856,1.25-11.419,1.25-15.275a1.435,1.435,0,0,0-1.439-1.439H184.328a1.435,1.435,0,0,0-1.439,1.439l1.184,15.529a48.641,48.641,0,0,1-1.595,5.541l-3.247,10.679a1.007,1.007,0,0,0,1.019,1.381h3.477v19.1c0,1.924,1.258,3.486,2.812,3.486s2.82-1.562,2.82-3.486V329.378h3.51v19.1c0,1.924,1.266,3.486,2.82,3.486s2.82-1.562,2.82-3.486v-19.1h2.877A1,1,0,0,0,202.406,328Z" transform="translate(-179.171 -271.387)" fill="rgba(0,0,0,0.6)"/><circle cx="6.749" cy="6.749" r="6.749" transform="translate(4.886 8.657)" fill="rgba(0,0,0,0.6)"/><path d="M616.982,17.021a6.4,6.4,0,0,1,3.839.921l1.743-6.5A1.435,1.435,0,0,0,621.125,10h-8.287a1.44,1.44,0,0,0-1.439,1.439l1.743,6.5A6.381,6.381,0,0,1,616.982,17.021ZM615.33,13.19a.165.165,0,0,1,.164-.164h.9a.047.047,0,0,0,.049-.049v-.9a.156.156,0,0,1,.156-.156h.756a.156.156,0,0,1,.156.156v.9a.047.047,0,0,0,.049.049h.9a.158.158,0,0,1,.156.164v.756h0a.165.165,0,0,1-.164.164h-.9a.047.047,0,0,0-.049.049v.9a.158.158,0,0,1-.164.156h-.748a.163.163,0,0,1-.164-.156v-.9a.047.047,0,0,0-.049-.049h-.9a.165.165,0,0,1-.164-.164V13.19Z" transform="translate(-575.866 -10)" fill="rgba(0,0,0,0.6)"/><path d="M560.9,326.5l-3.247-10.687a52.686,52.686,0,0,1-1.669-5.8c0-3.856,1.25-11.419,1.25-15.275a1.44,1.44,0,0,0-1.439-1.439H542.828a1.435,1.435,0,0,0-1.439,1.439l1.184,15.529a48.155,48.155,0,0,1-1.595,5.541l-3.247,10.679a1.007,1.007,0,0,0,1.019,1.381h3.477v19.1c0,1.924,1.258,3.486,2.812,3.486s2.82-1.562,2.82-3.486V327.878h3.51v19.1c0,1.924,1.266,3.478,2.82,3.478s2.82-1.554,2.82-3.478v-19.1h2.877A1,1,0,0,0,560.9,326.5Z" transform="translate(-508.198 -270.01)" fill="rgba(0,0,0,0.6)"/><circle cx="6.749" cy="6.749" r="6.749" transform="translate(34.366 8.542)" fill="rgba(0,0,0,0.6)"/></g></g></g></svg>