<svg xmlns="http://www.w3.org/2000/svg" width="108.133" height="107.469" viewBox="0 0 108.133 107.469"><g transform="translate(0 0)"><g transform="translate(0 0)"><path d="M402.685-497.8a12.747,12.747,0,0,0-5.33,2.489,10.884,10.884,0,0,0-2.247,13.3l.661,1.167-.506.815c-.265.44-1.652,2.578-3.084,4.714a30.624,30.624,0,0,0-2.731,4.692,3.868,3.868,0,0,0,3.767,4.515c1.762,0,2.291-.529,5.771-5.727l3.215-4.846,1.344.133a10.978,10.978,0,0,0,8.5-3.193,10.658,10.658,0,0,0,1.828-12.532,11.25,11.25,0,0,0-7.776-5.551A7.764,7.764,0,0,0,402.685-497.8Z" transform="translate(-347.527 497.997)" fill="rgba(0,0,0,0.6)"/><path d="M21.106-372.317a13.207,13.207,0,0,0-10.528,8.634l-.484,1.454-.066,36.012c-.066,39.8-.132,37.62,1.322,40.571a15.62,15.62,0,0,0,5.375,5.419c2.863,1.5-.617,1.388,47.334,1.388,47.84,0,44.382.11,47.312-1.366a14.814,14.814,0,0,0,5.4-5.485c1.454-3,1.366-.462,1.366-39.8,0-25.373-.066-36.056-.243-36.894a12.729,12.729,0,0,0-10.551-9.845c-1.145-.177-5.154-.243-12.863-.2l-11.211.066-.286,1.212a22.67,22.67,0,0,1-1.344,3.3,12.338,12.338,0,0,1-3.062,4.119l-2.027,2.049H91.171c15.507,0,15.66,0,16.035.991.066.2.132,16.056.132,35.219V-290.6l-.573.529-.573.529H21.922l-.573-.529-.573-.529v-34.933c.022-27.113.066-35.021.286-35.285.639-.836.947-.858,12.687-.858H45.2l.529-1.167a48.678,48.678,0,0,1,2.775-4.515c2.114-3.172,2.423-3.876,2.092-4.758-.132-.308-1.586-.352-14.493-.33C28.221-372.427,21.48-372.361,21.106-372.317Z" transform="translate(-10 386.306)" fill="rgba(0,0,0,0.6)"/><path d="M180.619-154.268c-.9.418-1.167.705-6.608,7.842-2.621,3.458-4.956,6.454-5.154,6.673-.374.4-.506.33-3.106-1.475-3.172-2.2-4.009-2.445-5.594-1.674a3.458,3.458,0,0,0-1.7,4.692c.418.86,1.013,1.344,4.714,3.92a52.9,52.9,0,0,0,5.11,3.259,3.114,3.114,0,0,0,3.414-.814c1.013-.969,13.018-16.63,13.546-17.665a3.745,3.745,0,0,0-.33-3.524A3.74,3.74,0,0,0,180.619-154.268Z" transform="translate(-141.76 192.419)" fill="rgba(0,0,0,0.6)"/><path d="M413.724-52.762a3.6,3.6,0,0,0-.309,5.9l.771.595,19.625.066c18.788.044,19.647.022,20.4-.352a3.812,3.812,0,0,0,1.872-2.709,3.889,3.889,0,0,0-1.63-3.436L453.7-53.2H434.076C414.892-53.2,414.429-53.181,413.724-52.762Z" transform="translate(-367.663 102.279)" fill="rgba(0,0,0,0.6)"/><path d="M180.388,83.221c-.705.352-2,1.917-6.343,7.6-3.832,5-5.551,7.115-5.749,7-.177-.11-1.432-.947-2.819-1.917-2.974-2.027-3.876-2.269-5.441-1.476a3.511,3.511,0,0,0-.86,5.682,80.114,80.114,0,0,0,9.1,6.167,3.168,3.168,0,0,0,2.885-.353c.683-.418,13.259-16.629,14.031-18.083a3.077,3.077,0,0,0,.309-1.828A3.481,3.481,0,0,0,180.388,83.221Z" transform="translate(-141.748 -18.726)" fill="rgba(0,0,0,0.6)"/><path d="M414.489,182.817a3.326,3.326,0,0,0-2.18,2.092,3.414,3.414,0,0,0,1.608,4.428c.815.418,1.388.44,20.131.44s19.317-.022,20.132-.44a3.563,3.563,0,0,0-.992-6.608c-.484-.132-9.009-.2-19.361-.2C418.784,182.531,415.171,182.575,414.489,182.817Z" transform="translate(-367.656 -107.442)" fill="rgba(0,0,0,0.6)"/></g></g></svg>