<svg xmlns="http://www.w3.org/2000/svg" width="116.703" height="28.504" viewBox="0 0 116.703 28.504">
  <g id="Group_324" data-name="Group 324" transform="translate(893 -11625)">
    <path id="XMLID_15_" d="M137.99,30.155c-.344,2.327-2.115,2.327-3.834,2.327h-.978l.687-4.336a.538.538,0,0,1,.529-.45h.449c1.163,0,2.274,0,2.829.661A2.116,2.116,0,0,1,137.99,30.155Zm-.74-6.055H130.8a.909.909,0,0,0-.9.767l-2.618,16.552a.535.535,0,0,0,.529.608H130.9a.909.909,0,0,0,.9-.767l.714-4.469a.9.9,0,0,1,.873-.767h2.036c4.257,0,6.716-2.062,7.351-6.134a5.075,5.075,0,0,0-.82-4.178A6.2,6.2,0,0,0,137.25,24.1Z" transform="translate(-986.611 11607.272)" fill="#fff"/>
    <path id="XMLID_12_" d="M193.057,51.893a3.439,3.439,0,0,1-3.49,2.961,2.632,2.632,0,0,1-2.089-.846A2.6,2.6,0,0,1,187,51.84a3.477,3.477,0,0,1,3.464-2.988,2.612,2.612,0,0,1,2.062.846A2.72,2.72,0,0,1,193.057,51.893Zm4.31-6h-3.094a.518.518,0,0,0-.529.45l-.132.873L193.4,46.9c-.661-.978-2.168-1.3-3.649-1.3a7.105,7.105,0,0,0-6.9,6.214,5.885,5.885,0,0,0,1.163,4.759,4.848,4.848,0,0,0,3.887,1.56,5.937,5.937,0,0,0,4.284-1.772l-.132.846a.558.558,0,0,0,.529.635h2.776a.908.908,0,0,0,.9-.767L197.922,46.5A.571.571,0,0,0,197.367,45.891Z" transform="translate(-1027.425 11591.457)" fill="#fff"/>
    <path id="XMLID_11_" d="M260.162,46.7h-3.094a.915.915,0,0,0-.74.4l-4.284,6.293-1.824-6.055a.913.913,0,0,0-.873-.635h-3.041a.531.531,0,0,0-.5.714l3.411,10.048-3.226,4.548a.531.531,0,0,0,.45.846h3.094a.851.851,0,0,0,.74-.4l10.339-14.913A.538.538,0,0,0,260.162,46.7Z" transform="translate(-1073.774 11590.648)" fill="#fff"/>
    <path id="XMLID_8_" d="M312.164,30.155c-.344,2.327-2.115,2.327-3.834,2.327h-.978l.687-4.336a.538.538,0,0,1,.529-.45h.449c1.163,0,2.274,0,2.829.661A2.116,2.116,0,0,1,312.164,30.155Zm-.74-6.055h-6.452a.863.863,0,0,0-.873.767l-2.618,16.552a.535.535,0,0,0,.529.608h3.305a.584.584,0,0,0,.608-.529l.74-4.68a.9.9,0,0,1,.873-.767h2.036c4.257,0,6.716-2.062,7.351-6.134a5.075,5.075,0,0,0-.82-4.178C315.231,24.682,313.591,24.1,311.423,24.1Z" transform="translate(-1114.75 11607.272)" fill="#fff"/>
    <path id="XMLID_5_" d="M367.157,51.893a3.439,3.439,0,0,1-3.49,2.961,2.632,2.632,0,0,1-2.089-.846,2.6,2.6,0,0,1-.476-2.168,3.474,3.474,0,0,1,3.464-2.961,2.457,2.457,0,0,1,2.591,3.014Zm4.31-6h-3.094a.518.518,0,0,0-.529.45l-.132.873L367.5,46.9c-.661-.978-2.168-1.3-3.649-1.3a7.105,7.105,0,0,0-6.9,6.214,5.885,5.885,0,0,0,1.163,4.759A4.848,4.848,0,0,0,362,58.133a5.937,5.937,0,0,0,4.284-1.772l-.132.846a.558.558,0,0,0,.529.635h2.776a.863.863,0,0,0,.873-.767L372,46.5A.522.522,0,0,0,371.467,45.891Z" transform="translate(-1155.491 11591.457)" fill="#fff"/>
    <path id="XMLID_4_" d="M418.525,24.476l-2.644,16.87a.535.535,0,0,0,.529.608h2.671a.908.908,0,0,0,.9-.767L422.6,24.635a.558.558,0,0,0-.529-.635h-2.988A.571.571,0,0,0,418.525,24.476Z" transform="translate(-1198.901 11607.346)" fill="#fff"/>
    <path id="XMLID_3_" d="M38.074,27.4c-.026.159-.053.344-.079.529-1.19,5.976-5.183,8.038-10.286,8.038H25.118a1.253,1.253,0,0,0-1.243,1.058l-1.322,8.435-.37,2.38a.668.668,0,0,0,.661.767h4.574a1.086,1.086,0,0,0,1.084-.925l.053-.238.873-5.5.053-.291a1.106,1.106,0,0,1,1.084-.925h.687c4.469,0,7.959-1.824,8.99-7.06.423-2.195.212-4.019-.925-5.315A4.187,4.187,0,0,0,38.074,27.4Z" transform="translate(-909.302 11604.845)" fill="#fff"/>
    <path id="XMLID_2_" d="M41.583,24.4a4.226,4.226,0,0,0-.555-.132,4.484,4.484,0,0,0-.582-.106,15.46,15.46,0,0,0-2.3-.159H31.218a.968.968,0,0,0-.476.106,1.09,1.09,0,0,0-.608.82l-1.481,9.36-.053.264a1.273,1.273,0,0,1,1.243-1.058h2.591c5.1,0,9.1-2.062,10.259-8.065.026-.185.053-.344.079-.529a5.137,5.137,0,0,0-.952-.4A.939.939,0,0,0,41.583,24.4Z" transform="translate(-914.027 11607.346)" fill="#fff"/>
    <path id="XMLID_1_" d="M9.039,7.271a1.09,1.09,0,0,1,.608-.82,1.037,1.037,0,0,1,.476-.106h6.928a15.718,15.718,0,0,1,2.3.159c.212.026.4.079.582.106.185.053.37.079.555.132.079.026.185.053.264.079a5.136,5.136,0,0,1,.952.4c.344-2.221,0-3.728-1.19-5.077C19.193.635,16.813,0,13.772,0H4.915A1.233,1.233,0,0,0,3.672,1.058l-3.7,23.4a.759.759,0,0,0,.74.873H6.184l1.375-8.7Z" transform="translate(-892.959 11625)" fill="#fff"/>
  </g>
</svg>
