<svg xmlns="http://www.w3.org/2000/svg" width="52.602" height="58.738" viewBox="0 0 52.602 58.738"><g transform="translate(-61.199 -10)"><path d="M94.135,34.514H88.441V28.82A1.445,1.445,0,0,0,87,27.375H80.182a1.445,1.445,0,0,0-1.444,1.444v5.694H73.043A1.445,1.445,0,0,0,71.6,35.958v6.821a1.445,1.445,0,0,0,1.444,1.444h5.694v5.694a1.445,1.445,0,0,0,1.444,1.444H87a1.445,1.445,0,0,0,1.444-1.444V44.224h5.694a1.445,1.445,0,0,0,1.444-1.444V35.958A1.445,1.445,0,0,0,94.135,34.514ZM92.7,41.335H87a1.445,1.445,0,0,0-1.444,1.444v5.694H81.626V42.779a1.445,1.445,0,0,0-1.444-1.444H74.488V37.4h5.694a1.445,1.445,0,0,0,1.444-1.444V30.264h3.932v5.694A1.445,1.445,0,0,0,87,37.4H92.7Zm21.1-11.052V11.444a1.444,1.444,0,1,0-2.889,0V28.814h-4.933V22.365a5.39,5.39,0,0,0-5.382-5.382H66.582A5.39,5.39,0,0,0,61.2,22.365V56.373a5.39,5.39,0,0,0,5.382,5.382H100.59a5.39,5.39,0,0,0,5.382-5.382V49.923h4.933V67.293a1.444,1.444,0,0,0,2.889,0V30.282Zm-10.711,26.09a2.5,2.5,0,0,1-2.5,2.5H66.582a2.5,2.5,0,0,1-2.5-2.5V22.365a2.5,2.5,0,0,1,2.5-2.5H100.59a2.5,2.5,0,0,1,2.5,2.5V56.373Zm7.822-9.338h-4.933V31.7h4.933Z" fill="rgba(0,0,0,0.6)"/></g></svg>