<svg xmlns="http://www.w3.org/2000/svg" width="47.525" height="58.5" viewBox="0 0 47.525 58.5"><g transform="translate(-47.801 -10)"><path d="M238.1,48h4v54.5h-4Z" transform="translate(-180.3 -36.003)" fill="rgba(0,0,0,0.6)"/><path d="M276.2,10h32.434v4H276.2Z" transform="translate(-216.397)" fill="rgba(0,0,0,0.6)"/><path d="M855.4,48h4v54.5h-4Z" transform="translate(-765.16 -36.003)" fill="rgba(0,0,0,0.6)"/><path d="M276.2,913.9h32.434v4H276.2Z" transform="translate(-216.397 -849.399)" fill="rgba(0,0,0,0.6)"/><path d="M47.8,114.7h4v51h-4Z" transform="translate(0 -99.198)" fill="rgba(0,0,0,0.6)"/><path d="M130.3,87.9h7v4h-7Z" transform="translate(-78.165 -73.806)" fill="rgba(0,0,0,0.6)"/><path d="M129.558,224.9l7.016.105-.058,4L129.5,228.9Z" transform="translate(-77.407 -201.939)" fill="rgba(0,0,0,0.6)"/><path d="M130.3,363.8h7v4h-7Z" transform="translate(-78.165 -332.467)" fill="rgba(0,0,0,0.6)"/><path d="M130.3,496.2h7v4h-7Z" transform="translate(-78.165 -456.884)" fill="rgba(0,0,0,0.6)"/><path d="M129.563,633.2l7.016.11-.063,4-7.016-.11Z" transform="translate(-77.407 -585.613)" fill="rgba(0,0,0,0.6)"/><path d="M130.3,772.1h7v4h-7Z" transform="translate(-78.165 -715.051)" fill="rgba(0,0,0,0.6)"/><path d="M130.3,888.5h7v4h-7Z" transform="translate(-78.165 -825.334)" fill="rgba(0,0,0,0.6)"/><path d="M374.5,241.5h21.173v4H374.5Z" transform="translate(-309.532 -217.542)" fill="rgba(0,0,0,0.6)"/><path d="M374.5,363.8h14.336v4H374.5v-4Z" transform="translate(-309.532 -332.467)" fill="rgba(0,0,0,0.6)"/><path d="M396.7,495.3h6v4h-6Z" transform="translate(-330.565 -456.039)" fill="rgba(0,0,0,0.6)"/><path d="M546.7,412.7l5.77,4.02-12.891,18.519-5.775-4.02L546.7,412.7Z" transform="translate(-460.46 -376.423)" fill="rgba(0,0,0,0.6)"/><path d="M496.055,393.632,487.4,387.6l14.893-21.4,8.66,6.017Zm-3.768-6.905,2.89,2.013,10.883-15.644-2.89-2.013Z" transform="translate(-416.499 -330.481)" fill="rgba(0,0,0,0.6)"/><path d="M537.573,722.021l-3.121,4.073-3.637.447-.515-3.626,3.122-4.062,3.642-.452Z" transform="translate(-457.144 -664.173)" fill="rgba(0,0,0,0.6)"/><path d="M496.257,693.15l-.857-6.064,4.02-5.234,6.085-.751.851,6.064-4.02,5.239Zm2.827-5.1.168,1.193,1.193-.147,2.223-2.9-.163-1.188-1.2.147Z" transform="translate(-424.078 -628.833)" fill="rgba(0,0,0,0.6)"/><path d="M783.974,364.442a3.069,3.069,0,0,1,.641,4.288l-1.277,1.724a3.07,3.07,0,0,1-4.293.636h0a3.058,3.058,0,0,1-.636-4.283l1.277-1.724a3.065,3.065,0,0,1,4.288-.641Z" transform="translate(-691.642 -332.263)" fill="rgba(0,0,0,0.6)"/><path d="M749.21,342.7a4.816,4.816,0,0,1-3.862-7.693l1.266-1.718a4.949,4.949,0,0,1,6.747-1,4.827,4.827,0,0,1,1.009,6.737l-1.282,1.724A4.848,4.848,0,0,1,749.21,342.7Zm1.282-7.856a1.309,1.309,0,0,0-1.056.531l-1.272,1.724a1.263,1.263,0,0,0-.247.967,1.3,1.3,0,0,0,.515.862,1.152,1.152,0,0,0,1.834-.268l1.277-1.724a1.305,1.305,0,0,0-.279-1.829A1.266,1.266,0,0,0,750.492,334.843Z" transform="translate(-659.984 -301.553)" fill="rgba(0,0,0,0.6)"/></g></svg>