<svg xmlns="http://www.w3.org/2000/svg" width="67.624" height="67.61" viewBox="0 0 67.624 67.61"><g transform="translate(-10 -10)"><path d="M40.638,73.512h6.34V52.256a6.34,6.34,0,0,1,12.68,0V73.512h5.285V41.68a6.34,6.34,0,0,1,12.68,0V77.61H10V56.478a6.34,6.34,0,0,1,12.68,0V73.512h5.285V45.9a6.34,6.34,0,0,1,12.68,0v27.61ZM65.351,16.8l-7.913,3.263a6.144,6.144,0,0,0-9.555.911l-7.189-1.421a6.146,6.146,0,0,0-12.253.7,5.605,5.605,0,0,0,.028.593l-8.451,4.878a6.141,6.141,0,1,0,2.277,4.767,6.512,6.512,0,0,0-.131-1.276l8.051-4.65a6.147,6.147,0,0,0,9.679-1.214l7,1.387a6.146,6.146,0,0,0,12.28-.386,5.472,5.472,0,0,0-.028-.586L67.1,20.48a6.147,6.147,0,1,0-1.787-4.333C65.316,16.368,65.33,16.589,65.351,16.8Zm-49.2,15.737A2.049,2.049,0,1,0,14.1,30.49,2.049,2.049,0,0,0,16.147,32.539ZM34.588,22.294a2.049,2.049,0,1,0-2.049-2.049A2.049,2.049,0,0,0,34.588,22.294Zm18.434,4.1a2.049,2.049,0,1,0-2.049-2.049A2.049,2.049,0,0,0,53.022,26.392Zm18.441-8.2a2.049,2.049,0,1,0-2.049-2.049A2.049,2.049,0,0,0,71.463,18.2ZM51.2,52.249a2.111,2.111,0,0,1,4.222,0V73.388H51.194V52.249ZM14.222,56.478a2.111,2.111,0,0,1,4.222,0V73.388H14.222ZM32.187,45.93a2.111,2.111,0,1,1,4.222,0V73.381H32.18V45.93Zm36.972-4.236a2.111,2.111,0,1,1,4.222,0V73.381H69.152V41.694Z" fill="rgba(0,0,0,0.6)"/></g></svg>