<svg xmlns="http://www.w3.org/2000/svg" width="65" height="68.947" viewBox="0 0 65 68.947"><g transform="translate(-38 -10)"><g transform="translate(38 10)"><g transform="translate(19.451 0)"><g transform="translate(5.473)"><path d="M400.406,25.619h.07a7.5,7.5,0,0,0,7.5-7.5,7.361,7.361,0,0,0-.246-1.9,7.5,7.5,0,0,0-7.26-5.621h-.07a7.489,7.489,0,0,0-7.5,7.485,7.361,7.361,0,0,0,.246,1.9A7.5,7.5,0,0,0,400.406,25.619Z" transform="translate(-392.858 -10.558)" fill="rgba(0,0,0,0.6)"/><path d="M399.918,25.1h-.07a7.54,7.54,0,0,1-7.3-5.663,7.675,7.675,0,0,1-.246-1.913A7.534,7.534,0,0,1,399.82,10h.084a7.542,7.542,0,0,1,7.3,5.656,7.677,7.677,0,0,1,.246,1.913A7.543,7.543,0,0,1,399.918,25.1Zm-.1-15.019a7.449,7.449,0,0,0-7.436,7.443,7.553,7.553,0,0,0,.246,1.892,7.443,7.443,0,0,0,7.218,5.6h.07a7.458,7.458,0,0,0,7.45-7.45,7.553,7.553,0,0,0-.246-1.892,7.439,7.439,0,0,0-7.218-5.586h-.084Z" transform="translate(-392.3 -10)" fill="rgba(0,0,0,0.6)"/></g><path d="M335.442,268.8h-1.871l-1.871,9.349h-2.216l-.577-6.275a11.428,11.428,0,0,1,1.027-2.786s.077-.169.12-.253h-.028c.007-.007.007-.028.014-.035h-4.995c.007.007.007.014.014.035h-.007c.042.084.12.253.12.253a12.551,12.551,0,0,1,.943,2.42c.028.113.049.225.07.345l-.577,6.31h-2.216l-1.871-9.349h-1.871a5.143,5.143,0,0,0-5.149,5.149v15a5.143,5.143,0,0,0,5.149,5.149h.654V315.9a3.634,3.634,0,0,0,7.246.408,3.634,3.634,0,0,0,7.246-.408V294.09h.654a5.143,5.143,0,0,0,5.149-5.149v-15A5.165,5.165,0,0,0,335.442,268.8Z" transform="translate(-314.5 -250.594)" fill="rgba(0,0,0,0.6)"/></g><g transform="translate(44.367 0)"><path d="M676.806,25.619h.07a7.5,7.5,0,0,0,7.5-7.5,7.361,7.361,0,0,0-.246-1.9,7.5,7.5,0,0,0-7.26-5.621h-.07a7.5,7.5,0,0,0-7.5,7.5,7.361,7.361,0,0,0,.246,1.9A7.51,7.51,0,0,0,676.806,25.619Z" transform="translate(-669.258 -10.558)" fill="rgba(0,0,0,0.6)"/><path d="M676.318,25.1h-.07a7.542,7.542,0,0,1-7.3-5.656,7.675,7.675,0,0,1-.246-1.913A7.549,7.549,0,0,1,676.241,10h.07a7.542,7.542,0,0,1,7.3,5.656,7.675,7.675,0,0,1,.246,1.913A7.549,7.549,0,0,1,676.318,25.1Zm-.077-15.019a7.464,7.464,0,0,0-7.45,7.457,7.553,7.553,0,0,0,.246,1.892,7.439,7.439,0,0,0,7.218,5.586h.07a7.458,7.458,0,0,0,7.45-7.45,7.553,7.553,0,0,0-.246-1.892,7.439,7.439,0,0,0-7.218-5.586h-.07Z" transform="translate(-668.7 -10)" fill="rgba(0,0,0,0.6)"/></g><path d="M688.639,268.8H686.76l-1.871,9.349h-2.216l-.577-6.275a11.43,11.43,0,0,1,1.027-2.786s.077-.169.12-.253h-.028c.007-.007.007-.028.014-.035h-4.995c.007.007.007.014.021.035h-.007c.042.084.12.253.12.253a12.551,12.551,0,0,1,.943,2.42c.028.113.049.225.07.345l-.577,6.31h-2.012v10.8a7.576,7.576,0,0,1-3.292,6.254V315.9a3.634,3.634,0,0,0,7.246.408,3.634,3.634,0,0,0,7.246-.408V294.09h.654a5.143,5.143,0,0,0,5.149-5.149v-15A5.17,5.17,0,0,0,688.639,268.8Z" transform="translate(-628.795 -250.594)" fill="rgba(0,0,0,0.6)"/><g transform="translate(5.473 0)"><path d="M123.906,25.619h.07a7.5,7.5,0,0,0,7.5-7.5,7.361,7.361,0,0,0-.246-1.9,7.51,7.51,0,0,0-7.26-5.621h-.07a7.5,7.5,0,0,0-7.5,7.5,7.362,7.362,0,0,0,.246,1.9A7.5,7.5,0,0,0,123.906,25.619Z" transform="translate(-116.358 -10.558)" fill="rgba(0,0,0,0.6)"/><path d="M123.419,25.1h-.07a7.542,7.542,0,0,1-7.3-5.656,7.676,7.676,0,0,1-.246-1.913A7.549,7.549,0,0,1,123.341,10h.07a7.542,7.542,0,0,1,7.3,5.656,7.676,7.676,0,0,1,.246,1.913A7.549,7.549,0,0,1,123.419,25.1Zm-.077-15.019a7.458,7.458,0,0,0-7.45,7.45,7.553,7.553,0,0,0,.246,1.892,7.439,7.439,0,0,0,7.218,5.586h.07a7.458,7.458,0,0,0,7.45-7.45,7.553,7.553,0,0,0-.246-1.892,7.439,7.439,0,0,0-7.218-5.586h-.07Z" transform="translate(-115.8 -10)" fill="rgba(0,0,0,0.6)"/></g><path d="M55,288.947v-10.8H52.984l-.577-6.275a11.429,11.429,0,0,1,1.027-2.786s.077-.169.12-.253h-.028c.007-.007.007-.028.014-.035H48.545c.007.007.007.014.014.035h-.007c.042.084.12.253.12.253a12.552,12.552,0,0,1,.943,2.42c.028.113.049.225.07.345l-.577,6.31H46.892l-1.857-9.356H43.149A5.143,5.143,0,0,0,38,273.956v15a5.143,5.143,0,0,0,5.149,5.149H43.8V315.9a3.634,3.634,0,0,0,7.246.408,3.634,3.634,0,0,0,7.246-.408V295.2A7.6,7.6,0,0,1,55,288.947Z" transform="translate(-38 -250.594)" fill="rgba(0,0,0,0.6)"/></g></g></svg>